<mxfile host="app.diagrams.net" modified="2023-12-11T12:53:20.897Z" agent="Mozilla/5.0 (Macintosh; Intel Mac OS X 10_15_7) AppleWebKit/537.36 (KHTML, like Gecko) Chrome/119.0.0.0 Safari/537.36" version="22.1.7" etag="jLgbdUYQ3lfmf22oTkHN" type="github">
  <diagram name="Seite-1" id="seM9K211Fq18FHVvWayW">
    <mxGraphModel>
      <root>
        <mxCell id="0" />
        <mxCell id="1" parent="0" />
      </root>
    </mxGraphModel>
  </diagram>
</mxfile>
